<?xml version="1.0" encoding="iso-8859-1"?>
<!-- Generator: Adobe Illustrator 19.0.0, SVG Export Plug-In . SVG Version: 6.00 Build 0)  -->
<svg version="1.1" id="Capa_1" xmlns="http://www.w3.org/2000/svg" xmlns:xlink="http://www.w3.org/1999/xlink" x="0px" y="0px"
	 viewBox="0 0 377.477 377.477" style="enable-background:new 0 0 377.477 377.477;" xml:space="preserve">
<g>
	<g>
		<path d="M272.575,89.485c-4.556-11.05-11.243-21.094-19.68-29.56c-35.442-35.54-92.984-35.619-128.524-0.177
			c-35.54,35.442-35.619,92.984-0.177,128.524c35.442,35.54,92.984,35.619,128.524,0.177
			C278.732,162.507,286.567,123.455,272.575,89.485z M262.335,154.805v-0.04c-16.881,41.046-63.84,60.635-104.886,43.754
			s-60.635-63.84-43.754-104.886s63.84-60.635,104.886-43.754c30.143,12.397,49.813,41.773,49.794,74.366
			C268.384,134.729,266.331,145.113,262.335,154.805z"/>
	</g>
</g>
<g>
	<g>
		<path d="M244.015,235.525c61.456-30.518,86.536-105.077,56.018-166.533c-5.997-12.077-13.92-23.097-23.458-32.627
			c-48.554-48.515-127.244-48.483-175.758,0.071C52.302,84.99,52.333,163.68,100.887,212.195
			c17.83,17.815,40.655,29.789,65.448,34.331v22h-42.24c-12.282,0.117-22.145,10.168-22.028,22.45
			c0.055,5.823,2.392,11.391,6.508,15.51c4.163,4.179,9.821,6.526,15.72,6.52h42.04v42.24c0.005,12.283,9.966,22.236,22.249,22.231
			c12.276-0.005,22.226-9.955,22.231-22.231v-42.24h42.24c5.83-0.047,11.406-2.39,15.52-6.52c8.66-8.711,8.619-22.792-0.092-31.452
			c-4.154-4.13-9.77-6.454-15.628-6.468h-42.04v-22C222.35,244.482,233.529,240.765,244.015,235.525z M205.335,279.645h48
			c6.119-0.095,11.156,4.788,11.251,10.907c0.047,3.001-1.126,5.893-3.251,8.013c-2.117,2.121-5.004,3.29-8,3.24h-48
			c-3.071,0-5.56,2.489-5.56,5.56v48c0,6.119-4.961,11.08-11.08,11.08c-6.119,0-11.08-4.961-11.08-11.08v-48
			c0-3.071-2.489-5.56-5.56-5.56h-48c-2.996,0.05-5.883-1.119-8-3.24c-4.331-4.323-4.337-11.339-0.013-15.669
			c2.121-2.124,5.012-3.297,8.013-3.25h48c3.071,0,5.56-2.489,5.56-5.56v-32.32c0.008-2.921-2.247-5.35-5.16-5.56
			c-11.914-1.714-23.475-5.334-34.24-10.72C82.349,197.618,59.652,129.74,87.519,73.874s95.746-78.563,151.611-50.696
			c53.096,26.485,76.677,89.515,54.004,144.347c-15.31,36.941-48.974,63.063-88.56,68.72c-2.756,0.38-4.806,2.738-4.8,5.52v32.32
			C199.775,277.156,202.264,279.645,205.335,279.645z"/>
	</g>
</g>
<g>
</g>
<g>
</g>
<g>
</g>
<g>
</g>
<g>
</g>
<g>
</g>
<g>
</g>
<g>
</g>
<g>
</g>
<g>
</g>
<g>
</g>
<g>
</g>
<g>
</g>
<g>
</g>
<g>
</g>
</svg>
